<svg width="14" height="14" viewBox="0 0 14 14" fill="none" xmlns="http://www.w3.org/2000/svg">
<path d="M9.4124 8.92599C9.44243 9.10686 9.45806 9.29259 9.45806 9.48197C9.45806 11.3424 7.94985 12.8506 6.08938 12.8506C4.22891 12.8506 2.7207 11.3424 2.7207 9.48197C2.7207 8.62542 3.04038 7.84354 3.56694 7.24913" stroke="#3A3A3A" stroke-linecap="round" stroke-linejoin="round"/>
<path d="M7.68303 9.48197C7.68303 10.362 6.96961 11.0754 6.08956 11.0754C5.20951 11.0754 4.49609 10.362 4.49609 9.48197C4.49609 8.80747 4.91518 8.23085 5.50716 7.99829" stroke="#3A3A3A" stroke-linecap="round" stroke-linejoin="round"/>
<path d="M2.8167 7.35508L2.24707 6.373L3.24822 5.6359C3.64929 5.34062 4.07804 5.0849 4.52845 4.87233L5.70542 4.31686H12.3341V5.15221C12.3341 5.68654 12.2214 6.21486 12.0032 6.70264C11.651 7.49024 11.0411 8.13443 10.2739 8.52914L10.1391 8.59848C9.77288 8.78688 9.39087 8.94283 8.99744 9.06453L7.82227 9.42807C7.66481 9.47678 7.50402 9.51397 7.34117 9.53934L6.39079 9.71833C6.19177 9.74934 5.75664 9.67781 5.62422 9.53934C5.41919 9.32495 5.27934 9.01917 5.3256 8.71081L5.52335 7.92292C5.55022 7.74382 5.53653 7.57017 5.4345 7.42053L5.4091 7.38328C5.22328 7.11073 4.89421 6.97341 4.56977 7.03301L2.8167 7.35508Z" stroke="#3A3A3A" stroke-linejoin="round"/>
<path d="M5.40234 3.04719C5.40234 2.62148 5.74745 2.27638 6.17315 2.27638H12.0916C12.5173 2.27638 12.8624 2.62148 12.8624 3.04719V3.54606C12.8624 3.97176 12.5173 4.31687 12.0916 4.31687H6.17315C5.74745 4.31687 5.40234 3.97176 5.40234 3.54606V3.04719Z" stroke="#3A3A3A" stroke-linejoin="round"/>
<path d="M12.0819 2.27639V1.82205C12.0819 1.27907 11.7368 0.838898 11.3111 0.838898H6.95538C6.52967 0.838898 6.18457 1.27907 6.18457 1.82205V2.27639" stroke="#3A3A3A" stroke-linejoin="round"/>
<path d="M2.28675 6.42414L1.45996 5.10124" stroke="#3A3A3A" stroke-linecap="round" stroke-linejoin="round"/>
</svg>
