<svg width="20" height="20" viewBox="0 0 20 20" fill="none" xmlns="http://www.w3.org/2000/svg">
<g clip-path="url(#clip0_74_7682)">
<path d="M9.65326 13.7248L9.64732 13.725C9.63094 13.7255 9.60993 13.7259 9.58462 13.7257C9.53404 13.7254 9.46606 13.7231 9.38348 13.7158C9.21857 13.7013 8.99361 13.6668 8.73204 13.5881C8.20495 13.4294 7.53771 13.0931 6.92433 12.3984L6.9243 12.3984C6.29168 11.6818 5.72094 10.6474 5.31962 9.83084C5.1154 9.4153 4.94833 9.04207 4.83219 8.77249C4.77405 8.63754 4.7285 8.52815 4.69726 8.45192C4.68163 8.4138 4.66957 8.38394 4.6613 8.3633L4.65174 8.33935L4.64914 8.33278L4.64839 8.33088L4.64815 8.33028L4.64807 8.33007C4.64804 8.32999 4.64801 8.32992 5.22973 8.10139M9.65326 13.7248L12.2436 7.79549C12.1703 7.84368 12.1226 7.95499 12.1226 7.95499M9.65326 13.7248H10.1832C10.2076 13.7248 10.232 13.7233 10.2562 13.7205L10.213 13.353C10.213 13.353 10.213 13.353 10.213 13.353C10.2563 13.7205 10.2564 13.7205 10.2566 13.7204L10.2569 13.7204L10.2576 13.7203L10.259 13.7202L10.262 13.7198L10.2689 13.7189L10.286 13.7164C10.2988 13.7144 10.3146 13.7117 10.3329 13.708C10.3687 13.7009 10.4174 13.6894 10.4726 13.671C10.5669 13.6398 10.7558 13.5646 10.9064 13.3886L10.9069 13.3881C11.0582 13.2109 11.0996 13.0069 11.1139 12.9218C11.1177 12.8985 11.1207 12.8765 11.123 12.8563C11.1622 12.9045 11.2008 12.9516 11.235 12.9917C11.3517 13.1291 11.5001 13.2913 11.6715 13.4192L12.0452 12.9182M9.65326 13.7248L10.2663 13.0809C10.3196 13.0643 10.387 13.0344 10.4316 12.9822C10.5082 12.8925 10.5057 12.7227 10.5057 12.7227M5.22973 8.10139C4.63916 8.30598 4.63911 8.30583 4.63907 8.30569L4.63897 8.30541L4.63876 8.30482L4.63834 8.30358L4.63742 8.30088L4.63532 8.29458L4.63019 8.27845C4.62642 8.26624 4.62187 8.25072 4.6171 8.23254C4.60788 8.19744 4.59619 8.14639 4.58848 8.08625C4.57941 8.01549 4.54344 7.72632 4.73648 7.47205L4.74129 7.46572L4.74133 7.46576C4.92096 7.2353 5.18108 7.17404 5.25819 7.15684C5.31749 7.14361 5.36967 7.13676 5.40648 7.13306C5.42542 7.13115 5.4417 7.12995 5.4545 7.12918L5.47134 7.1283L5.47785 7.12805L5.48061 7.12795L5.48186 7.12791L5.48246 7.1279L5.48275 7.12789C5.48289 7.12788 5.48303 7.12788 5.50051 7.75264L5.48303 7.12788L5.49616 7.12751L5.49616 7.12765L6.79136 7.11863C6.8291 7.11836 6.86679 7.12152 6.90397 7.12806L6.79571 7.74361C6.90397 7.12806 6.9041 7.12808 6.90423 7.12811L6.90449 7.12815L6.90504 7.12825L6.90616 7.12845L6.90857 7.12889L6.91403 7.1299L6.92742 7.13256C6.93738 7.13462 6.94957 7.1373 6.96357 7.14069C6.99122 7.1474 7.02785 7.15736 7.06972 7.17163C7.14534 7.1974 7.27348 7.24893 7.39646 7.34752C7.51975 7.44599 7.59396 7.56278 7.63045 7.62699C7.6639 7.53658 7.70816 7.46846 7.73429 7.43085C7.82435 7.30123 7.96516 7.16322 8.14024 7.07027C8.37175 6.94687 8.6366 6.90608 8.85149 6.88765C9.07801 6.86822 9.33033 6.86851 9.57214 6.87097L9.57329 6.87098C9.99552 6.87604 10.1571 6.90688 10.3607 6.96028L10.3612 6.96041C10.5872 7.01985 10.8114 7.14622 10.9634 7.38377C11.0974 7.59307 11.1298 7.82167 11.1411 7.98792C11.1527 8.15877 11.1457 8.35555 11.1388 8.5446C11.1382 8.56001 11.1376 8.57554 11.1371 8.5912C11.1358 8.62437 11.1346 8.65811 11.1333 8.69252C11.2361 8.48933 11.3283 8.27615 11.3994 8.09987C11.4416 7.99526 11.4753 7.90647 11.4982 7.84439C11.5096 7.81341 11.5183 7.78922 11.524 7.77321L11.5303 7.75554L11.5316 7.75165L11.5318 7.75125C11.5318 7.75122 11.5318 7.75119 11.5318 7.75117M5.22973 8.10139L4.64801 8.32992C4.6449 8.322 4.64195 8.31402 4.63916 8.30598L5.22973 8.10139ZM11.5318 7.75117L12.1226 7.95499M11.5318 7.75117C11.5367 7.73696 11.5421 7.72293 11.548 7.70911L12.1226 7.95499M11.5318 7.75117L13.749 7.1279M12.1226 7.95499C11.548 7.70911 11.5481 7.709 11.5481 7.70888L11.5482 7.70866L11.5484 7.70819L11.5489 7.70722L11.5498 7.70512L11.5519 7.70036L11.5572 7.68859C11.5612 7.67982 11.5663 7.66903 11.5725 7.65668C11.5847 7.63247 11.6022 7.59971 11.625 7.56304C11.661 7.50519 11.7492 7.37254 11.9002 7.27325L11.9054 7.26982L11.9055 7.26984C12.0676 7.16557 12.2303 7.14304 12.3164 7.13704C12.365 7.13365 12.4067 7.13444 12.4379 7.13619C12.4399 7.1363 12.4418 7.13642 12.4438 7.13654L13.749 7.1279M13.749 7.1279C13.7677 7.12623 13.7912 7.12446 13.8183 7.12317C13.8777 7.12034 13.9649 7.11922 14.0622 7.12957C14.1533 7.13926 14.2912 7.16268 14.4307 7.23078C14.5772 7.3023 14.7673 7.44624 14.8524 7.70499L13.749 7.1279ZM12.0452 12.9182C12.3876 13.1746 12.6481 13.1178 12.6481 13.1178M12.0452 12.9182L11.6706 13.4185C11.9239 13.6082 12.1686 13.697 12.3731 13.7308C12.4735 13.7474 12.5604 13.7501 12.6297 13.7471C12.6535 13.746 12.6752 13.7443 12.6946 13.7422M12.0452 12.9182C11.8659 12.7844 11.6907 12.5659 11.5239 12.3578C11.269 12.0398 11.0335 11.746 10.832 11.8154M12.6481 13.1178L12.6574 13.7427L12.6946 13.7422M12.6481 13.1178L13.8588 13.0998M12.6481 13.1178C12.7813 13.7285 12.7809 13.7285 12.7806 13.7286L12.7798 13.7288L12.7783 13.7291L12.7753 13.7297L12.7688 13.7311L12.7543 13.7338C12.7441 13.7356 12.7326 13.7374 12.7199 13.7391C12.712 13.7402 12.7035 13.7412 12.6946 13.7422M12.6946 13.7422L13.8681 13.7247C13.8789 13.7245 13.8897 13.7241 13.9005 13.7234L13.8588 13.0998M10.832 11.8154C10.4958 11.9321 10.5057 12.7227 10.5057 12.7227M10.832 11.8154L11.0356 12.4063C10.8648 12.4652 10.7428 12.4026 10.7163 12.3863M10.832 11.8154L11.0369 12.4059C11.1427 12.3691 11.1878 12.3038 11.1958 12.2906M10.5057 12.7227C10.7689 12.7189 10.9213 12.7167 11.0095 12.7155L11.0102 12.7164C10.9221 12.7175 10.7697 12.7194 10.5057 12.7227ZM10.7163 12.3863L11.1958 12.2906M10.7163 12.3863C10.7126 12.3836 10.7108 12.3825 10.7109 12.3827C10.7109 12.3828 10.7127 12.3841 10.7163 12.3863ZM11.1958 12.2906C11.1967 12.2889 11.1972 12.2882 11.1972 12.2882C11.1972 12.2882 11.1967 12.2891 11.1958 12.2906ZM13.8588 13.0998C13.9005 13.7234 13.9007 13.7234 13.901 13.7233M13.8588 13.0998L13.901 13.7233M13.901 13.7233L13.9016 13.7233L13.9028 13.7232L13.9053 13.723L13.9112 13.7226L13.9261 13.7212C13.9373 13.7202 13.9513 13.7186 13.9675 13.7165C13.9995 13.7122 14.0423 13.7054 14.0917 13.6941C14.1825 13.6735 14.3315 13.6303 14.478 13.5354C14.6317 13.4358 14.8162 13.2549 14.878 12.9662C14.9363 12.6937 14.8607 12.4381 14.7472 12.2279C14.7684 12.2665 14.6995 12.1367 14.6874 12.1153C14.6481 12.0457 14.5931 11.9564 14.5155 11.8466C14.3609 11.6275 14.1185 11.3288 13.7356 10.9422L13.3018 11.3718M13.901 13.7233L13.3018 11.3718M13.3018 11.3718L13.7356 10.9422C13.5936 10.7988 13.5071 10.7106 13.4521 10.6488M13.3018 11.3718L13.4521 10.6488M13.4521 10.6488C13.4711 10.6172 13.4975 10.5755 13.5339 10.5217C13.5985 10.4262 13.6648 10.333 13.7446 10.2208C13.8303 10.1003 13.9317 9.95791 14.0632 9.76707M13.4521 10.6488L14.0632 9.76707M14.0632 9.76707C14.0632 9.7672 14.0631 9.76733 14.063 9.76747L13.5486 9.41237L14.0632 9.76707ZM14.0632 9.76707C14.35 9.35169 14.5674 8.99347 14.7055 8.69649M14.0632 9.76707L14.7055 8.69649M14.7055 8.69649C14.7745 8.54827 14.8325 8.39674 14.8655 8.24846M14.7055 8.69649L14.8655 8.24846M14.8655 8.24846C14.8965 8.10981 14.9203 7.91119 14.8525 7.7052L14.8655 8.24846ZM7.99482 8.47801C8.03739 8.49486 8.07976 8.50659 8.12013 8.51395C8.12519 8.54017 8.12972 8.57025 8.13344 8.60305C8.13921 8.65391 8.14197 8.70168 8.14321 8.73693C8.14382 8.7542 8.14404 8.76761 8.14411 8.77585L8.14413 8.78015C8.09156 8.68038 8.04136 8.57786 7.99482 8.47801ZM8.71619 9.69251C8.71774 9.69371 8.71851 9.69438 8.71851 9.69443C8.71851 9.69447 8.71774 9.69387 8.71619 9.69251ZM7.58708 7.82548L7.11825 8.00047C7.36177 7.90957 7.50401 7.85646 7.58708 7.82542C7.58708 7.82544 7.58708 7.82546 7.58708 7.82548ZM10.4988 9.68388C10.4988 9.6838 10.5001 9.68273 10.5026 9.68092C10.5001 9.68305 10.4988 9.68396 10.4988 9.68388Z" stroke="#3A3A3A" stroke-width="1.25" stroke-linejoin="round"/>
<rect x="1.33301" y="1.3335" width="17.3333" height="17.3333" rx="8.66667" stroke="#3A3A3A" stroke-width="1.25" stroke-linejoin="round"/>
</g>
<defs>
<clipPath id="clip0_74_7682">
<rect width="20" height="20" fill="white"/>
</clipPath>
</defs>
</svg>
