<svg width="20" height="20" viewBox="0 0 20 20" fill="none" xmlns="http://www.w3.org/2000/svg">
<path d="M10.1401 1.86292C7.95102 1.86292 5.96596 2.75112 4.52641 4.1895C3.09036 5.62788 2.19633 7.61527 2.19633 9.80082C2.19633 10.5317 2.29773 11.2497 2.48773 11.9281C2.6684 12.5715 2.92368 13.1835 3.24772 13.7476L1.93989 17.6338C1.87461 17.8331 1.98302 18.0499 2.18234 18.1187C2.26044 18.1455 2.34553 18.142 2.42129 18.1187L6.44853 16.8284C6.98238 17.1093 7.55587 17.3331 8.15617 17.487C8.79143 17.6513 9.457 17.7399 10.1389 17.7399C12.3279 17.7399 14.3142 16.8517 15.7525 15.4133L15.7595 15.4063C17.1956 13.9714 18.0803 11.9899 18.0803 9.80315C18.0803 7.61411 17.1933 5.62788 15.7537 4.1895C14.3188 2.75462 12.3326 1.86292 10.1401 1.86292Z" stroke="#3A3A3A" stroke-width="1.25" stroke-linejoin="round"/>
<path d="M7.50393 5.76028C7.72394 5.77314 7.83252 5.78457 7.97681 6.1303L7.97395 6.13173C8.15396 6.57032 8.58827 7.63751 8.64399 7.74609C8.70113 7.85895 8.7497 8.00753 8.67684 8.15182C8.60398 8.29468 8.54398 8.36326 8.4354 8.49184C8.32826 8.62041 8.22825 8.71613 8.11539 8.85328C8.01538 8.969 7.90252 9.10186 8.02682 9.31902C8.15111 9.53617 8.5897 10.2505 9.23544 10.8248C10.0669 11.5634 10.7455 11.8006 10.9869 11.9049C11.167 11.9806 11.3798 11.9606 11.5127 11.8206C11.6856 11.6391 11.8856 11.3377 12.0984 11.0448C12.2513 10.8377 12.437 10.8119 12.637 10.8848C12.837 10.9562 13.9057 11.4848 14.1228 11.592C14.3428 11.7006 14.4871 11.7563 14.54 11.8448C14.5914 11.9349 14.5914 12.372 14.4114 12.8778C14.2357 13.3878 13.5156 13.8064 12.9499 13.9307C12.557 14.0135 12.0499 14.0778 10.3355 13.3678C8.1411 12.4563 6.72818 10.2262 6.61961 10.0819C6.51103 9.93762 5.73242 8.90185 5.73242 7.83323C5.73242 6.76033 6.27816 6.23745 6.49532 6.01744C6.67104 5.836 6.96819 5.75171 7.25392 5.75171C7.34393 5.75171 7.42679 5.756 7.50393 5.76028Z" stroke="#3A3A3A" stroke-width="1.25" stroke-linejoin="round"/>
</svg>
