<svg width="158" height="28" viewBox="0 0 158 28" fill="none" xmlns="http://www.w3.org/2000/svg">
<path fill-rule="evenodd" clip-rule="evenodd" d="M11.519 9.47864H3.47363V7.0884H11.519C13.8864 7.0884 15.6517 8.12066 16.8662 9.56145C18.0516 10.9678 18.7017 12.7419 18.9884 14.3153L16.6167 14.7403C16.3797 13.4398 15.8577 12.0918 15.0171 11.0945C14.2054 10.1316 13.0908 9.47864 11.519 9.47864Z" fill="#FF8B20"/>
<path fill-rule="evenodd" clip-rule="evenodd" d="M10.0469 26.8819L10.0469 20.5567L12.6671 20.5567L12.6671 26.8819L10.0469 26.8819Z" fill="#3A3A3A"/>
<path d="M7.56114 27.9361C6.56885 27.9361 5.71675 27.2364 5.53162 26.2695L5.35254 25.3343H17.2788C18.0018 25.3343 18.5879 25.9167 18.5879 26.6352C18.5879 27.3537 18.0018 27.9361 17.2788 27.9361H7.56114Z" fill="#3A3A3A"/>
<path d="M2.89827 12.5312L0.5 0H1.45448C2.44683 0 3.29898 0.699809 3.48403 1.66673L5.47236 12.056C5.62285 12.861 6.32962 13.4449 7.15356 13.4449H19.5421C21.9146 13.4449 23.8378 15.3562 23.8378 17.7139C23.8378 20.0716 21.9146 21.9828 19.5421 21.9828H4.71096L4.67826 21.8121C4.43658 20.5499 5.41236 19.381 6.70778 19.381H19.5421C20.4686 19.381 21.2197 18.6346 21.2197 17.7139C21.2197 16.7931 20.4686 16.0467 19.5421 16.0467H7.15356C5.06911 16.0467 3.28092 14.5702 2.89883 12.5342L2.89827 12.5312Z" fill="#3A3A3A"/>
<path d="M31.2637 4.9973H41.056V6.64194H33.0064V11.3086H40.4336V12.9532H33.0064V17.7433H41.1804V19.3879H31.2637V4.9973Z" fill="#3A3A3A"/>
<path d="M46.0168 19.3879H44.2741V4.9973H49.9586C50.9129 4.9973 51.7774 5.1275 52.5519 5.3879C53.3264 5.6346 53.9903 6.10058 54.5435 6.78584C55.1106 7.4574 55.3941 8.31399 55.3941 9.35559C55.3941 10.5891 55.0345 11.5484 54.3153 12.2337C53.5961 12.919 52.6625 13.3644 51.5146 13.57L56.4315 19.3879H54.2531L49.5022 13.7139H46.0168V19.3879ZM46.0168 6.64194V12.0692H50.0416C51.0651 12.0692 51.9157 11.8637 52.5934 11.4525C53.2849 11.0276 53.6307 10.3287 53.6307 9.35559C53.6307 8.36881 53.2849 7.66984 52.5934 7.25868C51.9157 6.84752 51.0651 6.64194 50.0416 6.64194H46.0168Z" fill="#3A3A3A"/>
<path d="M57.7484 12.1926C57.7484 10.6165 58.1287 9.2528 58.8894 8.10155C59.6501 6.9366 60.6045 6.08687 61.7524 5.55236C62.9004 5.01786 64.1383 4.7506 65.466 4.7506C67.0704 4.7506 68.5227 5.07268 69.8228 5.71683V7.4437C68.7025 6.74473 67.3332 6.39524 65.715 6.39524C64.9266 6.39524 64.1728 6.51174 63.4536 6.74473C62.7344 6.96401 62.0705 7.29979 61.462 7.75207C60.8673 8.19064 60.3901 8.79367 60.0305 9.56117C59.6847 10.3287 59.5118 11.2058 59.5118 12.1926C59.5118 13.2342 59.6916 14.1456 60.0512 14.9268C60.4108 15.6943 60.8949 16.2973 61.5035 16.7359C62.112 17.1608 62.769 17.476 63.4744 17.6816C64.1936 17.8872 64.9543 17.9899 65.7565 17.9899C66.7938 17.9899 67.6859 17.8118 68.4328 17.4554V11.7403H70.1755V18.6684C68.7647 19.3125 67.2502 19.6346 65.632 19.6346C64.5947 19.6346 63.6196 19.4975 62.7068 19.2234C61.7939 18.9493 60.9572 18.5313 60.1965 17.9694C59.4496 17.3938 58.8549 16.6126 58.4123 15.6258C57.9697 14.639 57.7484 13.4946 57.7484 12.1926Z" fill="#3A3A3A"/>
<path d="M72.9778 14.9268C72.6597 14.0497 72.5007 13.1383 72.5007 12.1926C72.5007 11.2469 72.6597 10.3355 72.9778 9.45838C73.3098 8.58124 73.78 7.79318 74.3886 7.09421C74.9972 6.38154 75.7924 5.81276 76.7744 5.3879C77.7564 4.96304 78.8629 4.7506 80.0939 4.7506C81.3248 4.7506 82.4313 4.96304 83.4133 5.3879C84.3953 5.81276 85.1906 6.38154 85.7991 7.09421C86.4077 7.79318 86.871 8.58124 87.1891 9.45838C87.5211 10.3355 87.687 11.2469 87.687 12.1926C87.687 13.1383 87.5211 14.0497 87.1891 14.9268C86.871 15.8039 86.4077 16.5989 85.7991 17.3115C85.1906 18.0105 84.3953 18.5724 83.4133 18.9973C82.4313 19.4222 81.3248 19.6346 80.0939 19.6346C78.8629 19.6346 77.7564 19.4222 76.7744 18.9973C75.7924 18.5724 74.9972 18.0105 74.3886 17.3115C73.78 16.5989 73.3098 15.8039 72.9778 14.9268ZM85.5502 14.3512C85.7991 13.6659 85.9236 12.9464 85.9236 12.1926C85.9236 11.4388 85.7991 10.7193 85.5502 10.034C85.315 9.34874 84.9623 8.732 84.4921 8.18379C84.0357 7.63557 83.4271 7.20386 82.6664 6.88863C81.9057 6.55971 81.0482 6.39524 80.0939 6.39524C79.1395 6.39524 78.282 6.55971 77.5213 6.88863C76.7606 7.20386 76.1451 7.63557 75.6749 8.18379C75.2185 8.732 74.8658 9.34874 74.6168 10.034C74.3817 10.7193 74.2641 11.4388 74.2641 12.1926C74.2641 12.9464 74.3817 13.6659 74.6168 14.3512C74.8658 15.0365 75.2185 15.6532 75.6749 16.2014C76.1451 16.7496 76.7606 17.1882 77.5213 17.5171C78.282 17.8323 79.1395 17.9899 80.0939 17.9899C81.0482 17.9899 81.9057 17.8323 82.6664 17.5171C83.4271 17.1882 84.0357 16.7496 84.4921 16.2014C84.9623 15.6532 85.315 15.0365 85.5502 14.3512Z" fill="#3A3A3A"/>
<path d="M89.8438 8.80061C89.8438 7.47119 90.3486 6.457 91.3582 5.75803C92.3679 5.05906 93.6334 4.70957 95.1548 4.70957C96.9805 4.70957 98.5503 5.07962 99.8643 5.8197V8.69782C98.6333 7.82068 97.1396 7.39582 95.383 7.42323C93.8063 7.45064 93.0179 7.89606 93.0179 8.7595C93.0179 9.14325 93.2116 9.47903 93.5988 9.76684C93.9999 10.0546 94.4909 10.2876 95.0718 10.4658C95.6666 10.6303 96.3028 10.8496 96.9805 11.1237C97.6721 11.3841 98.3083 11.6719 98.8892 11.9871C99.4839 12.2886 99.9749 12.7409 100.362 13.3439C100.763 13.947 100.964 14.6459 100.964 15.4408C100.964 16.222 100.812 16.8936 100.507 17.4555C100.217 18.0174 99.802 18.456 99.2626 18.7712C98.7232 19.0865 98.1285 19.3126 97.4784 19.4497C96.8284 19.6004 96.1022 19.6758 95.3001 19.6758C93.2807 19.6758 91.4896 19.2441 89.9267 18.3806V15.4408C91.4758 16.455 93.1908 16.9621 95.0718 16.9621C96.8837 16.9621 97.7896 16.503 97.7896 15.5847C97.7896 15.1736 97.5891 14.8173 97.188 14.5157C96.8007 14.2005 96.3097 13.9538 95.715 13.7756C95.1341 13.5838 94.4979 13.3576 93.8063 13.0972C93.1286 12.8231 92.4924 12.5353 91.8976 12.2338C91.3167 11.9186 90.8257 11.4663 90.4246 10.877C90.0374 10.2876 89.8438 9.59552 89.8438 8.80061Z" fill="#FF8B20"/>
<path d="M101.745 4.99738H113.757V7.77271H109.297V19.388H106.206V7.77271H101.745V4.99738Z" fill="#FF8B20"/>
<path d="M114.94 15.0091C114.622 14.1183 114.463 13.1795 114.463 12.1927C114.463 11.2059 114.622 10.2671 114.94 9.37624C115.272 8.48539 115.749 7.69048 116.371 6.99151C117.008 6.29254 117.824 5.73747 118.819 5.32631C119.815 4.91515 120.936 4.70957 122.18 4.70957C123.425 4.70957 124.545 4.91515 125.541 5.32631C126.537 5.73747 127.346 6.29254 127.969 6.99151C128.605 7.69048 129.082 8.48539 129.4 9.37624C129.732 10.2671 129.898 11.2059 129.898 12.1927C129.898 13.1795 129.732 14.1183 129.4 15.0091C129.082 15.9 128.605 16.6949 127.969 17.3939C127.346 18.0928 126.537 18.6479 125.541 19.059C124.545 19.4702 123.425 19.6758 122.18 19.6758C120.936 19.6758 119.815 19.4702 118.819 19.059C117.824 18.6479 117.008 18.0928 116.371 17.3939C115.749 16.6949 115.272 15.9 114.94 15.0091ZM125.521 15.5025C126.309 14.6254 126.703 13.5221 126.703 12.1927C126.703 10.8633 126.309 9.75998 125.521 8.88284C124.732 8.0057 123.619 7.56713 122.18 7.56713C120.728 7.56713 119.608 8.0057 118.819 8.88284C118.031 9.75998 117.637 10.8633 117.637 12.1927C117.637 13.5221 118.031 14.6254 118.819 15.5025C119.608 16.3797 120.728 16.8182 122.18 16.8182C123.619 16.8182 124.732 16.3797 125.521 15.5025Z" fill="#FF8B20"/>
<path d="M135.467 19.388H132.355V4.99738H138.33C139.09 4.99738 139.789 5.07276 140.425 5.22352C141.075 5.37428 141.684 5.62098 142.251 5.96361C142.831 6.30624 143.281 6.79278 143.599 7.42323C143.931 8.05367 144.097 8.80747 144.097 9.68461C144.097 11.8638 143.039 13.2891 140.923 13.9607L145.259 19.388H141.67L137.749 14.3513H135.467V19.388ZM135.467 7.71104V11.7815H138.475C139.18 11.7815 139.761 11.6171 140.217 11.2881C140.688 10.9455 140.923 10.4315 140.923 9.74628C140.923 9.04731 140.695 8.53336 140.238 8.20443C139.782 7.8755 139.194 7.71104 138.475 7.71104H135.467Z" fill="#FF8B20"/>
<path d="M147.148 4.99738H157.376V7.71104H150.26V10.7742H156.753V13.4673H150.26V16.6743H157.5V19.388H147.148V4.99738Z" fill="#FF8B20"/>
<path d="M31.6921 27.9393H31.2637V24.3972H33.6099V24.802H31.6921V27.9393Z" fill="#666666"/>
<path d="M34.2596 24.3972H35.4786C36.4884 24.3972 36.9934 24.7784 36.9934 25.5408C36.9934 26.3032 36.4884 26.6844 35.4786 26.6844H34.688V27.9393H34.2596V24.3972ZM36.5598 25.5408C36.5598 25.3957 36.5326 25.2743 36.4782 25.1765C36.4238 25.0753 36.3456 24.9993 36.2436 24.9487C36.145 24.8948 36.0362 24.8577 35.9172 24.8374C35.7982 24.8138 35.6588 24.802 35.499 24.802H34.688V26.2796H35.499C35.8288 26.2796 36.0872 26.2256 36.2742 26.1176C36.4646 26.0097 36.5598 25.8174 36.5598 25.5408Z" fill="#666666"/>
<path d="M39.1675 27.1347C38.8921 27.7116 38.5181 28 38.0455 28C37.8822 28 37.7207 27.9764 37.5609 27.9292V27.5294C37.7071 27.5733 37.8431 27.5952 37.9689 27.5952C38.122 27.5952 38.2546 27.5648 38.3668 27.5041C38.4824 27.4434 38.5895 27.3186 38.6881 27.1297L38.7493 26.9981L37.2753 24.3972H37.7496L38.9788 26.5983L40.0091 24.3972H40.4681L39.1675 27.1347Z" fill="#666666"/>
<path d="M41.4568 27.9393H41.0283V24.3972H43.9407V27.9393H43.5122V24.802H41.4568V27.9393Z" fill="#666666"/>
<path d="M45.409 27.9393H44.9806V24.3972H47.8929V27.9393H47.4645V24.802H45.409V27.9393Z" fill="#666666"/>
<path d="M48.9634 27.9393H48.4992L50.0549 24.3972H50.5292L52.0797 27.9393H51.6207L51.2535 27.0841H49.3306L48.9634 27.9393ZM50.2334 24.969L49.4989 26.6894H51.0851L50.3456 24.969C50.3388 24.9521 50.3201 24.9066 50.2895 24.8324C50.2589 24.91 50.2402 24.9555 50.2334 24.969Z" fill="#666666"/>
<path d="M54.4913 27.9393H54.0629V24.3972H54.4913V25.9304H55.3023L56.3784 24.3972H56.8681L55.6542 26.1227L56.9752 27.9393H56.4856L55.3176 26.3352H54.4913V27.9393Z" fill="#666666"/>
<path d="M57.275 26.8412C57.1968 26.6253 57.1577 26.401 57.1577 26.1682C57.1577 25.9355 57.1968 25.7111 57.275 25.4952C57.3566 25.2793 57.4723 25.0854 57.6219 24.9133C57.7715 24.7379 57.967 24.5979 58.2084 24.4933C58.4498 24.3888 58.7219 24.3365 59.0245 24.3365C59.3271 24.3365 59.5991 24.3888 59.8405 24.4933C60.082 24.5979 60.2775 24.7379 60.4271 24.9133C60.5767 25.0854 60.6906 25.2793 60.7688 25.4952C60.8504 25.7111 60.8912 25.9355 60.8912 26.1682C60.8912 26.401 60.8504 26.6253 60.7688 26.8412C60.6906 27.0571 60.5767 27.2528 60.4271 27.4282C60.2775 27.6003 60.082 27.7386 59.8405 27.8431C59.5991 27.9477 59.3271 28 59.0245 28C58.7219 28 58.4498 27.9477 58.2084 27.8431C57.967 27.7386 57.7715 27.6003 57.6219 27.4282C57.4723 27.2528 57.3566 27.0571 57.275 26.8412ZM60.3659 26.6996C60.4271 26.5309 60.4577 26.3538 60.4577 26.1682C60.4577 25.9827 60.4271 25.8056 60.3659 25.6369C60.3081 25.4683 60.2214 25.3165 60.1058 25.1815C59.9935 25.0466 59.8439 24.9403 59.6569 24.8627C59.4699 24.7818 59.2591 24.7413 59.0245 24.7413C58.7899 24.7413 58.579 24.7818 58.392 24.8627C58.205 24.9403 58.0537 25.0466 57.9381 25.1815C57.8259 25.3165 57.7392 25.4683 57.678 25.6369C57.6202 25.8056 57.5913 25.9827 57.5913 26.1682C57.5913 26.3538 57.6202 26.5309 57.678 26.6996C57.7392 26.8682 57.8259 27.02 57.9381 27.155C58.0537 27.2899 58.205 27.3978 58.392 27.4788C58.579 27.5564 58.7899 27.5952 59.0245 27.5952C59.2591 27.5952 59.4699 27.5564 59.6569 27.4788C59.8439 27.3978 59.9935 27.2899 60.1058 27.155C60.2214 27.02 60.3081 26.8682 60.3659 26.6996Z" fill="#666666"/>
<path d="M65.0086 24.3972H65.3758V27.9393H64.9474V25.2018L63.6672 27.1044H63.402L62.1218 25.2018V27.9393H61.6933V24.3972H62.0606L63.5346 26.5832L65.0086 24.3972Z" fill="#666666"/>
<path d="M66.846 27.9393H66.4176V24.3972H69.3299V27.9393H68.9015V24.802H66.846V27.9393Z" fill="#666666"/>
<path d="M70.4004 27.9393H69.9363L71.4919 24.3972H71.9662L73.5167 27.9393H73.0577L72.6905 27.0841H70.7676L70.4004 27.9393ZM71.6704 24.969L70.9359 26.6894H72.5222L71.7826 24.969C71.7758 24.9521 71.7571 24.9066 71.7265 24.8324C71.6959 24.91 71.6772 24.9555 71.6704 24.969Z" fill="#666666"/>
<path d="M76.6729 24.3972H77.1013V27.9393H76.6729V26.3656H74.5562V27.9393H74.1278V24.3972H74.5562V25.9608H76.6729V24.3972Z" fill="#666666"/>
<path d="M81.1133 27.9393H80.6848V25.1056L78.5376 27.9393H78.1397V24.3972H78.5682V27.2258L80.7154 24.3972H81.1133V27.9393Z" fill="#666666"/>
<path d="M84.6968 27.9393V25.1056L82.5496 27.9393H82.1517V24.3972H82.5802V27.2258L84.7274 24.3972H85.1253V27.9393H84.6968ZM84.35 23.8406V23.4459C84.1222 23.5943 83.8842 23.6685 83.6359 23.6685C83.3877 23.6685 83.1497 23.5943 82.9219 23.4459V23.8406C83.1225 23.9823 83.3605 24.0531 83.6359 24.0531C83.9114 24.0531 84.1494 23.9823 84.35 23.8406Z" fill="#666666"/>
<path d="M87.2961 24.5743C87.5953 24.4157 87.9337 24.3365 88.3111 24.3365C88.5457 24.3365 88.7718 24.3753 88.9895 24.4529C89.2105 24.5304 89.4094 24.6435 89.5862 24.7919C89.7664 24.9403 89.9092 25.136 90.0146 25.3789C90.1234 25.6217 90.1778 25.8967 90.1778 26.2037C90.1778 26.5039 90.1234 26.7721 90.0146 27.0082C89.9092 27.2444 89.7647 27.4333 89.5811 27.575C89.4009 27.7133 89.202 27.8195 88.9844 27.8937C88.7667 27.9646 88.5389 28 88.3009 28C87.9337 28 87.5987 27.9207 87.2961 27.7622V27.3219C87.5545 27.5041 87.8691 27.5952 88.2397 27.5952C88.4267 27.5952 88.6035 27.5733 88.7701 27.5294C88.9367 27.4822 89.0915 27.4113 89.2343 27.3169C89.3771 27.2224 89.4944 27.0942 89.5862 26.9323C89.678 26.7704 89.7307 26.5832 89.7443 26.3706H87.8827V25.9658H89.7392C89.7018 25.5644 89.5403 25.2608 89.2547 25.055C88.969 24.8459 88.6341 24.7413 88.2499 24.7413C87.8691 24.7413 87.5511 24.8273 87.2961 24.9993V24.5743Z" fill="#666666"/>
<path d="M90.98 24.3972H92.199C93.2089 24.3972 93.7138 24.7784 93.7138 25.5408C93.7138 26.3032 93.2089 26.6844 92.199 26.6844H91.4084V27.9393H90.98V24.3972ZM93.2803 25.5408C93.2803 25.3957 93.2531 25.2743 93.1987 25.1765C93.1443 25.0753 93.0661 24.9993 92.9641 24.9487C92.8654 24.8948 92.7566 24.8577 92.6376 24.8374C92.5186 24.8138 92.3792 24.802 92.2194 24.802H91.4084V26.2796H92.2194C92.5492 26.2796 92.8076 26.2256 92.9947 26.1176C93.1851 26.0097 93.2803 25.8174 93.2803 25.5408Z" fill="#666666"/>
<path d="M94.8825 27.9393H94.4541V24.3972H96.8002V24.802H94.8825V27.9393Z" fill="#666666"/>
<path d="M97.1383 26.8412C97.0601 26.6253 97.0209 26.401 97.0209 26.1682C97.0209 25.9355 97.0601 25.7111 97.1383 25.4952C97.2199 25.2793 97.3355 25.0854 97.4851 24.9133C97.6347 24.7379 97.8302 24.5979 98.0716 24.4933C98.313 24.3888 98.5851 24.3365 98.8877 24.3365C99.1903 24.3365 99.4623 24.3888 99.7038 24.4933C99.9452 24.5979 100.141 24.7379 100.29 24.9133C100.44 25.0854 100.554 25.2793 100.632 25.4952C100.714 25.7111 100.754 25.9355 100.754 26.1682C100.754 26.401 100.714 26.6253 100.632 26.8412C100.554 27.0571 100.44 27.2528 100.29 27.4282C100.141 27.6003 99.9452 27.7386 99.7038 27.8431C99.4623 27.9477 99.1903 28 98.8877 28C98.5851 28 98.313 27.9477 98.0716 27.8431C97.8302 27.7386 97.6347 27.6003 97.4851 27.4282C97.3355 27.2528 97.2199 27.0571 97.1383 26.8412ZM100.229 26.6996C100.29 26.5309 100.321 26.3538 100.321 26.1682C100.321 25.9827 100.29 25.8056 100.229 25.6369C100.171 25.4683 100.085 25.3165 99.969 25.1815C99.8568 25.0466 99.7072 24.9403 99.5201 24.8627C99.3331 24.7818 99.1223 24.7413 98.8877 24.7413C98.6531 24.7413 98.4423 24.7818 98.2552 24.8627C98.0682 24.9403 97.9169 25.0466 97.8013 25.1815C97.6891 25.3165 97.6024 25.4683 97.5412 25.6369C97.4834 25.8056 97.4545 25.9827 97.4545 26.1682C97.4545 26.3538 97.4834 26.5309 97.5412 26.6996C97.6024 26.8682 97.6891 27.02 97.8013 27.155C97.9169 27.2899 98.0682 27.3978 98.2552 27.4788C98.4423 27.5564 98.6531 27.5952 98.8877 27.5952C99.1223 27.5952 99.3331 27.5564 99.5201 27.4788C99.7072 27.3978 99.8568 27.2899 99.969 27.155C100.085 27.02 100.171 26.8682 100.229 26.6996Z" fill="#666666"/>
<path d="M104.102 24.3972H104.53V27.9393H104.102V26.3656H101.985V27.9393H101.557V24.3972H101.985V25.9608H104.102V24.3972Z" fill="#666666"/>
<path d="M105.446 26.8412C105.368 26.6253 105.329 26.401 105.329 26.1682C105.329 25.9355 105.368 25.7111 105.446 25.4952C105.528 25.2793 105.643 25.0854 105.793 24.9133C105.943 24.7379 106.138 24.5979 106.38 24.4933C106.621 24.3888 106.893 24.3365 107.196 24.3365C107.498 24.3365 107.77 24.3888 108.012 24.4933C108.253 24.5979 108.449 24.7379 108.598 24.9133C108.748 25.0854 108.862 25.2793 108.94 25.4952C109.022 25.7111 109.062 25.9355 109.062 26.1682C109.062 26.401 109.022 26.6253 108.94 26.8412C108.862 27.0571 108.748 27.2528 108.598 27.4282C108.449 27.6003 108.253 27.7386 108.012 27.8431C107.77 27.9477 107.498 28 107.196 28C106.893 28 106.621 27.9477 106.38 27.8431C106.138 27.7386 105.943 27.6003 105.793 27.4282C105.643 27.2528 105.528 27.0571 105.446 26.8412ZM108.537 26.6996C108.598 26.5309 108.629 26.3538 108.629 26.1682C108.629 25.9827 108.598 25.8056 108.537 25.6369C108.479 25.4683 108.392 25.3165 108.277 25.1815C108.165 25.0466 108.015 24.9403 107.828 24.8627C107.641 24.7818 107.43 24.7413 107.196 24.7413C106.961 24.7413 106.75 24.7818 106.563 24.8627C106.376 24.9403 106.225 25.0466 106.109 25.1815C105.997 25.3165 105.91 25.4683 105.849 25.6369C105.791 25.8056 105.762 25.9827 105.762 26.1682C105.762 26.3538 105.791 26.5309 105.849 26.6996C105.91 26.8682 105.997 27.02 106.109 27.155C106.225 27.2899 106.376 27.3978 106.563 27.4788C106.75 27.5564 106.961 27.5952 107.196 27.5952C107.43 27.5952 107.641 27.5564 107.828 27.4788C108.015 27.3978 108.165 27.2899 108.277 27.155C108.392 27.02 108.479 26.8682 108.537 26.6996Z" fill="#666666"/>
<path d="M113.18 24.3972H113.547V27.9393H113.118V25.2018L111.838 27.1044H111.573L110.293 25.2018V27.9393H109.864V24.3972H110.232L111.706 26.5832L113.18 24.3972Z" fill="#666666"/>
<path d="M117.562 27.9393H117.134V25.1056L114.987 27.9393H114.589V24.3972H115.017V27.2258L117.164 24.3972H117.562V27.9393Z" fill="#666666"/>
<path d="M121.156 27.9393H120.728V26.5528C120.374 26.6709 120.025 26.7299 119.682 26.7299C119.264 26.7232 118.939 26.6186 118.708 26.4162C118.48 26.2138 118.366 25.9169 118.366 25.5256V24.3972H118.794V25.5458C118.794 26.0586 119.124 26.3184 119.784 26.3251C120.107 26.3251 120.422 26.2661 120.728 26.148V24.3972H121.156V27.9393Z" fill="#666666"/>
<path d="M124.739 24.3972H125.168V27.9393H124.739V26.3656H122.623V27.9393H122.194V24.3972H122.623V25.9608H124.739V24.3972Z" fill="#666666"/>
<path d="M126.084 26.8412C126.006 26.6253 125.967 26.401 125.967 26.1682C125.967 25.9355 126.006 25.7111 126.084 25.4952C126.165 25.2793 126.281 25.0854 126.431 24.9133C126.58 24.7379 126.776 24.5979 127.017 24.4933C127.259 24.3888 127.531 24.3365 127.833 24.3365C128.136 24.3365 128.408 24.3888 128.649 24.4933C128.891 24.5979 129.086 24.7379 129.236 24.9133C129.385 25.0854 129.499 25.2793 129.578 25.4952C129.659 25.7111 129.7 25.9355 129.7 26.1682C129.7 26.401 129.659 26.6253 129.578 26.8412C129.499 27.0571 129.385 27.2528 129.236 27.4282C129.086 27.6003 128.891 27.7386 128.649 27.8431C128.408 27.9477 128.136 28 127.833 28C127.531 28 127.259 27.9477 127.017 27.8431C126.776 27.7386 126.58 27.6003 126.431 27.4282C126.281 27.2528 126.165 27.0571 126.084 26.8412ZM129.175 26.6996C129.236 26.5309 129.266 26.3538 129.266 26.1682C129.266 25.9827 129.236 25.8056 129.175 25.6369C129.117 25.4683 129.03 25.3165 128.915 25.1815C128.802 25.0466 128.653 24.9403 128.466 24.8627C128.279 24.7818 128.068 24.7413 127.833 24.7413C127.599 24.7413 127.388 24.7818 127.201 24.8627C127.014 24.9403 126.862 25.0466 126.747 25.1815C126.635 25.3165 126.548 25.4683 126.487 25.6369C126.429 25.8056 126.4 25.9827 126.4 26.1682C126.4 26.3538 126.429 26.5309 126.487 26.6996C126.548 26.8682 126.635 27.02 126.747 27.155C126.862 27.2899 127.014 27.3978 127.201 27.4788C127.388 27.5564 127.599 27.5952 127.833 27.5952C128.068 27.5952 128.279 27.5564 128.466 27.4788C128.653 27.3978 128.802 27.2899 128.915 27.155C129.03 27.02 129.117 26.8682 129.175 26.6996Z" fill="#666666"/>
<path d="M133.047 27.9393V25.1056L130.9 27.9393H130.502V24.3972H130.931V27.2258L133.078 24.3972H133.476V27.9393H133.047ZM132.7 23.8406V23.4459C132.473 23.5943 132.235 23.6685 131.986 23.6685C131.738 23.6685 131.5 23.5943 131.272 23.4459V23.8406C131.473 23.9823 131.711 24.0531 131.986 24.0531C132.262 24.0531 132.5 23.9823 132.7 23.8406Z" fill="#666666"/>
<path d="M139.201 24.3972H139.569V27.9393H139.14V25.2018L137.86 27.1044H137.595L136.315 25.2018V27.9393H135.886V24.3972H136.253L137.727 26.5832L139.201 24.3972Z" fill="#666666"/>
<path d="M140.61 24.3972H143.018V24.802H141.039V25.9507H142.865V26.3555H141.039V27.5345H143.048V27.9393H140.61V24.3972Z" fill="#666666"/>
<path d="M144.294 25.8292H145.242C146.157 25.8292 146.615 26.1817 146.615 26.8868C146.615 27.5884 146.157 27.9393 145.242 27.9393H143.865V24.3972H146.339V24.802H144.294V25.8292ZM144.294 27.5345H145.263C145.365 27.5345 145.455 27.5311 145.533 27.5244C145.611 27.5142 145.693 27.4974 145.778 27.4737C145.866 27.4468 145.938 27.4113 145.992 27.3675C146.047 27.3203 146.091 27.2562 146.125 27.1752C146.162 27.0942 146.181 26.9981 146.181 26.8868C146.181 26.7485 146.155 26.6338 146.104 26.5427C146.053 26.4482 145.98 26.3808 145.885 26.3403C145.79 26.2998 145.695 26.2728 145.6 26.2593C145.504 26.2425 145.392 26.234 145.263 26.234H144.294V27.5345Z" fill="#666666"/>
<path d="M147.364 24.3972H149.772V24.802H147.793V25.9507H149.619V26.3555H147.793V27.5345H149.802V27.9393H147.364V24.3972Z" fill="#666666"/>
<path d="M151.287 24.3972H153.486V27.9393H153.057V24.802H151.695C151.61 25.7735 151.524 26.4482 151.435 26.8261C151.269 27.5244 150.997 27.9089 150.619 27.9798C150.578 27.9865 150.534 27.9899 150.487 27.9899C150.378 27.9899 150.272 27.9713 150.17 27.9342V27.5294C150.238 27.553 150.32 27.5648 150.415 27.5648C150.534 27.5648 150.64 27.5075 150.731 27.3928C150.823 27.2781 150.896 27.1297 150.951 26.9475C151.009 26.762 151.058 26.5359 151.099 26.2694C151.143 25.9996 151.177 25.728 151.201 25.4548C151.228 25.1815 151.253 24.8813 151.277 24.5541C151.277 24.5304 151.277 24.5136 151.277 24.5035C151.281 24.49 151.282 24.4731 151.282 24.4529C151.286 24.4326 151.287 24.4141 151.287 24.3972Z" fill="#666666"/>
<path d="M157.5 27.9393H157.072V25.1056L154.924 27.9393H154.527V24.3972H154.955V27.2258L157.102 24.3972H157.5V27.9393Z" fill="#666666"/>
</svg>
