<svg width="14" height="14" viewBox="0 0 14 14" fill="none" xmlns="http://www.w3.org/2000/svg">
<path d="M5.27331 0.828407C4.5478 0.828407 3.94315 1.33772 3.88172 2.00054L3.6223 4.80011C3.55303 5.54741 4.19592 6.18906 5.01389 6.18906H8.98522C9.8032 6.18906 10.4461 5.54741 10.3768 4.80011L10.1174 2.00054C10.056 1.33772 9.45132 0.828407 8.72581 0.828407H5.27331Z" stroke="#3A3A3A"/>
<path d="M3.47892 9.05449C3.77594 8.47877 4.44501 8.10697 5.18402 8.10697H8.81609C9.55509 8.10697 10.2242 8.47877 10.5212 9.05449L10.725 9.44951C10.86 9.71124 10.6347 10.0048 10.2987 10.0048H3.7014C3.36544 10.0048 3.1401 9.71124 3.27512 9.44951L3.47892 9.05449Z" stroke="#3A3A3A"/>
<path d="M4.12305 13.1716L5.82467 12.606C6.58726 12.3526 7.41138 12.3526 8.17397 12.606L9.87559 13.1716" stroke="#3A3A3A" stroke-linecap="round"/>
<path d="M12.0907 6.18906V7.18034C12.0907 7.57685 11.9175 8.47781 10.8037 8.82146" stroke="#3A3A3A" stroke-linecap="round" stroke-linejoin="round"/>
<path d="M1.90831 6.18906V7.18034C1.90831 7.57685 2.08151 8.47781 3.19531 8.82146" stroke="#3A3A3A" stroke-linecap="round" stroke-linejoin="round"/>
<path d="M7 6.18906L7 8.10697" stroke="#3A3A3A" stroke-linejoin="round"/>
<path d="M7 9.92476V12.4159" stroke="#3A3A3A" stroke-linejoin="round"/>
</svg>
