<svg width="14" height="14" viewBox="0 0 14 14" fill="none" xmlns="http://www.w3.org/2000/svg">
<path d="M3.48228 11.9011H2.21875" stroke="#3A3A3A" stroke-linecap="round" stroke-linejoin="round"/>
<path d="M11.7811 11.9011H10.5176" stroke="#3A3A3A" stroke-linecap="round" stroke-linejoin="round"/>
<path d="M0.953125 5.89163C0.953125 5.69225 1.11475 5.53062 1.31413 5.53062H2.03615C2.23553 5.53062 2.39715 5.69225 2.39715 5.89163V8.43153C2.39715 8.63091 2.55878 8.79254 2.75816 8.79254H11.2418C11.4412 8.79254 11.6028 8.63091 11.6028 8.43153V5.89163C11.6028 5.69225 11.7645 5.53062 11.9639 5.53062H12.6859C12.8852 5.53062 13.0469 5.69225 13.0469 5.89163V9.73218C13.0469 10.0313 12.8044 10.2737 12.5054 10.2737H1.49464C1.19557 10.2737 0.953125 10.0313 0.953125 9.73218L0.953125 5.89163Z" stroke="#3A3A3A" stroke-linejoin="round"/>
<path d="M12.3255 5.43114V2.61333C12.3255 2.21457 12.0022 1.89131 11.6035 1.89131H2.3978C1.99904 1.89131 1.67578 2.21457 1.67578 2.61333L1.67578 5.43114" stroke="#3A3A3A" stroke-linejoin="round"/>
<path d="M2.42383 7.07005H11.5992" stroke="#3A3A3A" stroke-linejoin="round"/>
</svg>
