<svg width="20" height="20" viewBox="0 0 20 20" fill="none" xmlns="http://www.w3.org/2000/svg">
<g clip-path="url(#clip0_74_7683)">
<path fill-rule="evenodd" clip-rule="evenodd" d="M18.6656 9.99979C18.6656 14.7908 14.7908 18.6656 9.99979 18.6656C5.21576 18.6656 1.33398 14.7908 1.33398 9.99979C1.33398 5.21576 5.21576 1.33398 9.99979 1.33398C14.7908 1.33398 18.6656 5.21576 18.6656 9.99979Z" stroke="#3A3A3A" stroke-width="1.25" stroke-linejoin="round"/>
<path d="M14.6596 11.6448C14.6596 12.6619 13.8373 13.4843 12.8201 13.4843H7.18619C6.16905 13.4843 5.34668 12.6619 5.34668 11.6448V8.36253C5.34668 7.34539 6.16905 6.51581 7.18619 6.51581H12.8201C13.8373 6.51581 14.6596 7.34539 14.6596 8.36253V11.6448Z" stroke="#3A3A3A" stroke-width="1.25" stroke-linejoin="round"/>
<path fill-rule="evenodd" clip-rule="evenodd" d="M8.94629 8.37665L11.7669 9.99974L8.94629 11.6301V8.37665Z" stroke="#3A3A3A" stroke-width="1.25" stroke-linejoin="round"/>
</g>
<defs>
<clipPath id="clip0_74_7683">
<rect width="20" height="20" fill="white"/>
</clipPath>
</defs>
</svg>
