<svg width="14" height="14" viewBox="0 0 14 14" fill="none" xmlns="http://www.w3.org/2000/svg">
<path d="M4.97949 4.48697V7.79342" stroke="#3A3A3A" stroke-linecap="round" stroke-linejoin="round"/>
<path d="M4.97949 9.50299L4.97949 9.51299" stroke="#3A3A3A" stroke-linecap="round" stroke-linejoin="round"/>
<path d="M7 4.48697V7.79342" stroke="#3A3A3A" stroke-linecap="round" stroke-linejoin="round"/>
<path d="M7 9.50299L7 9.51299" stroke="#3A3A3A" stroke-linecap="round" stroke-linejoin="round"/>
<path d="M9.02148 4.48697V7.79342" stroke="#3A3A3A" stroke-linecap="round" stroke-linejoin="round"/>
<path d="M9.02148 9.50299L9.02148 9.51299" stroke="#3A3A3A" stroke-linecap="round" stroke-linejoin="round"/>
<path d="M7.00029 0.656921C6.35113 0.656921 5.7779 0.981977 5.43446 1.4782C5.19713 1.82113 4.61333 2.06294 4.20302 1.98828C3.60929 1.88023 2.9741 2.05572 2.51507 2.51475C2.05605 2.97377 1.88055 3.60896 1.9886 4.20269C2.06326 4.613 1.82143 5.19682 1.4785 5.43416C0.982281 5.77759 0.657227 6.35083 0.657227 6.99999C0.657227 7.64915 0.982288 8.2224 1.47852 8.56583C1.82145 8.80316 2.06328 9.38697 1.98862 9.79728C1.88058 10.391 2.05607 11.0262 2.51509 11.4852C2.97412 11.9442 3.60931 12.1197 4.20304 12.0117C4.61334 11.937 5.19713 12.1788 5.43446 12.5218C5.77788 13.018 6.35113 13.3431 7.00029 13.3431C7.64946 13.3431 8.2227 13.018 8.56613 12.5218C8.80346 12.1788 9.38728 11.937 9.79759 12.0117C10.3913 12.1197 11.0265 11.9442 11.4855 11.4852C11.9446 11.0262 12.12 10.391 12.012 9.79725C11.9373 9.38695 12.1791 8.80316 12.5221 8.56582C13.0183 8.22239 13.3434 7.64915 13.3434 6.99999C13.3434 6.35083 13.0183 5.7776 12.5221 5.43416C12.1792 5.19683 11.9373 4.61302 12.012 4.20272C12.1201 3.60899 11.9446 2.97379 11.4855 2.51476C11.0265 2.05573 10.3913 1.88024 9.7976 1.98829C9.38729 2.06295 8.80346 1.82112 8.56612 1.47819C8.22269 0.981973 7.64945 0.656921 7.00029 0.656921Z" stroke="#3A3A3A"/>
</svg>
